<svg width="44" height="36" viewBox="0 0 44 36" fill="none" xmlns="http://www.w3.org/2000/svg">
<path d="M1.18945 21.4011C1.80644 21.4011 2.40485 21.5184 3.01813 21.4919C3.77636 21.4617 4.53459 21.4314 5.29282 21.4049C11.879 21.1891 18.4764 21.2535 25.0588 21.5941L24.6017 24.8984H24.5979L24.2151 24.8416C17.536 24.6788 10.8606 24.7205 4.1852 24.3988C4.05512 24.3988 3.92131 24.3874 3.80237 24.3344C3.66113 24.2701 3.55335 24.1527 3.44928 24.0354C2.68733 23.1649 1.93282 22.2906 1.18945 21.4049V21.4011Z" fill="#939393"/>
<path d="M23.6648 31.6241C25.6198 30.5871 27.3779 29.2131 29.1285 27.8468C31.5482 25.9505 33.9715 24.0581 36.3949 22.1618C37.4951 21.3026 38.4689 20.3602 39.5542 19.501C39.8032 19.308 41.8623 17.635 42.6726 17.1165L42.9997 16.897C42.9216 18.2141 42.9439 19.7735 42.8696 21.0945C42.8584 21.2761 42.8436 21.4692 42.7506 21.6244C42.6837 21.7341 42.5834 21.8136 42.483 21.8969C39.3758 24.3911 36.1161 26.6848 32.8639 28.9785C31.0018 30.2881 29.1397 31.5976 27.2813 32.9072C26.1588 33.6983 25.0251 34.4931 23.754 35.0003C23.7651 33.9405 23.7763 32.8845 23.7874 31.8285L23.6648 31.6241Z" fill="#939393"/>
<path d="M1 21.4083C1.12637 20.447 1.33823 19.5045 1.50177 18.5431C1.81027 16.6772 2.12248 14.8074 2.50159 12.9566C2.73203 11.8287 2.9885 10.7083 3.25982 9.59178C3.49398 8.61149 3.91398 7.55928 4.0292 6.56763C4.03292 6.50707 4.04779 6.43515 4.10354 6.41623C4.12584 6.40488 4.15186 6.40866 4.17416 6.41245C5.20372 6.54492 6.22956 6.71145 7.2554 6.86285C10.3106 7.31326 13.351 7.86207 16.3616 8.56228C19.7625 9.35712 23.1671 10.3488 26.6572 10.3639C26.568 10.3601 27.0995 7.12401 27.1403 6.84771C27.2853 5.86363 27.2667 4.85306 27.4191 3.8614C27.5603 2.93788 27.6719 1.85161 28.051 1C28.7757 1.43905 29.415 2.33608 29.9726 2.97952C30.5895 3.6873 31.1842 4.42157 31.7789 5.14828C32.6189 6.17778 33.4664 7.20728 34.3956 8.1573C35.3062 9.0846 36.135 10.0271 37.0159 10.9884C38.9226 13.0701 40.9372 15.0421 42.9926 16.9686C42.9665 16.9459 42.8476 17.0027 42.6729 17.1162C41.8626 17.6348 39.8035 19.3077 39.5545 19.5007C38.4692 20.3599 37.4954 21.3023 36.3952 22.1615C33.9718 24.0578 31.5485 25.9502 29.1288 27.8465C27.3782 29.2128 25.6202 30.5868 23.6651 31.6238C23.9773 29.3832 24.2896 27.1425 24.598 24.898H24.6018L25.0589 21.5938C18.4765 21.2531 11.8791 21.1888 5.29292 21.4045C4.53469 21.431 3.77646 21.4613 3.01823 21.4916C2.40496 21.5181 1.80655 21.397 1.18956 21.4008C1.12637 21.4008 1.06319 21.4045 1 21.4083Z" fill="#F0ECD9"/>
<path d="M1.18956 21.4008C1.12637 21.4008 1.06319 21.4045 1 21.4083C1.12637 20.447 1.33823 19.5045 1.50177 18.5431C1.81027 16.6772 2.12248 14.8074 2.50159 12.9566C2.73203 11.8287 2.9885 10.7083 3.25982 9.59178C3.49398 8.61149 3.91398 7.55928 4.0292 6.56763C4.03292 6.50707 4.04779 6.43515 4.10354 6.41623C4.12584 6.40488 4.15186 6.40866 4.17416 6.41245C5.20372 6.54492 6.22956 6.71145 7.2554 6.86285C10.3106 7.31326 13.351 7.86207 16.3616 8.56228C19.7625 9.35712 23.1671 10.3488 26.6572 10.3639C26.8319 9.32684 27.0995 7.12401 27.1403 6.84771C27.2853 5.86363 27.2667 4.85306 27.4191 3.8614C27.5603 2.93788 27.6719 1.85161 28.051 1C28.7757 1.43905 29.415 2.33608 29.9726 2.97952C30.5895 3.6873 31.1842 4.42157 31.7789 5.14828C32.6189 6.17778 33.4664 7.20728 34.3956 8.1573C35.3062 9.0846 36.135 10.0271 37.0159 10.9884C38.9226 13.0701 40.9372 15.0421 42.9926 16.9686C42.9665 16.9459 42.8476 17.0027 42.6729 17.1162C41.8626 17.6348 39.8035 19.3077 39.5545 19.5007C38.4692 20.3599 37.4954 21.3023 36.3952 22.1615C33.9718 24.0578 31.5485 25.9502 29.1288 27.8465C27.3782 29.2128 25.6202 30.5868 23.6651 31.6238C23.9773 29.3832 24.2896 27.1425 24.598 24.898H24.6018L25.0589 21.5938C18.4765 21.2531 11.8791 21.1888 5.29292 21.4045C4.53469 21.431 3.77646 21.4613 3.01823 21.4916C2.40496 21.5181 1.80655 21.397 1.18956 21.4008Z" stroke="#282D35" stroke-miterlimit="10"/>
<path d="M1 21.4382C1.74336 22.3239 2.68744 23.1641 3.44938 24.0347C3.55345 24.152 3.66124 24.2693 3.80248 24.3337C3.92142 24.3867 4.05522 24.3943 4.18531 24.398C10.8607 24.7198 17.7368 24.6819 24.4159 24.8447" stroke="#282D35" stroke-miterlimit="10"/>
<path d="M23.8584 31.6582C23.8473 32.7142 23.7655 33.9405 23.7544 35.0003C25.0255 34.4931 26.1592 33.6983 27.2817 32.9072C29.1401 31.5976 31.0022 30.2881 32.8643 28.9785C36.1165 26.6848 39.3762 24.3911 42.4834 21.8969C42.5838 21.8136 42.6841 21.7341 42.751 21.6244C42.8439 21.4692 42.8588 21.2761 42.87 21.0945C42.9443 19.7735 42.7919 18.2141 42.87 16.897" stroke="#282D35" stroke-miterlimit="10"/>
</svg>
