<svg width="310" height="310" viewBox="0 0 310 310" fill="none" xmlns="http://www.w3.org/2000/svg">
<path d="M137.921 0.558953L149.617 0.0673851C155.377 -0.17277 158.706 2.38263 158.852 5.83111C158.976 8.81429 157.201 11.2008 153.066 12.4316C154.342 14.2516 156.788 14.533 159.482 13.8613L159.809 21.6101C153.79 23.385 149.64 22.1842 148.101 14.8069L147.749 14.8219L148.052 22.1016L138.84 22.4881L137.921 0.555201V0.558953ZM149.782 8.12009C149.715 6.48404 148.469 6.09378 147.381 6.05251L147.561 10.3528C148.638 10.2215 149.846 9.69986 149.782 8.12009Z" fill="#282D35"/>
<path d="M162.825 0L178.807 1.65857L178.113 8.3529L171.302 7.64745L171.167 8.95704L176.522 9.5124L175.917 15.3362L170.563 14.7808L170.428 16.0904L177.238 16.7959L176.544 23.4902L160.562 21.8316L162.829 0L162.825 0Z" fill="#282D35"/>
<path d="M189.888 23.3814L186.995 22.6422L185.955 25.6404L177.024 23.3589L185.295 2.81812L200.89 6.80319L198.289 28.7924L189.359 26.5109L189.888 23.3852V23.3814ZM190.882 17.5952L192.098 10.5969L191.19 10.3642L188.897 17.0886L190.882 17.5952Z" fill="#282D35"/>
<path d="M201.802 18.6682C204.924 11.2835 210.125 9.50857 216.162 12.064C218.455 13.0321 221.566 14.9196 222.707 16.5781L218.767 25.1449C216.913 23.4413 211.554 20.0304 210.564 22.3756C209.551 24.7734 215.562 25.8879 218.264 26.3307L214.92 34.9913C212.999 35.3215 209.438 34.3571 207.145 33.389C200.811 30.7098 198.837 25.6815 201.802 18.672V18.6682Z" fill="#282D35"/>
<path d="M229.078 36.2448L227.085 35.014L223.348 41.0629L215.505 36.2148L227.044 17.5427L234.887 22.3909L231.164 28.4173L233.157 29.6481L236.879 23.6217L244.722 28.4698L233.183 47.1419L225.34 42.2937L229.078 36.2448Z" fill="#282D35"/>
<path d="M246.621 43.8772C252.186 38.1022 257.676 38.3123 262.396 42.8603C267.117 47.4082 267.53 52.8868 261.965 58.6617C256.644 64.1853 251.222 64.2416 246.332 59.5323C241.379 54.7592 241.341 49.3557 246.621 43.8772ZM251.919 53.7348C252.445 54.2414 253.574 53.6635 255.158 52.0199C256.865 50.2488 257.319 49.1456 256.813 48.6578C256.306 48.1699 255.218 48.6653 253.514 50.4364C251.931 52.08 251.394 53.2282 251.919 53.7348Z" fill="#282D35"/>
<path d="M263.367 60.2864L272.242 53.6296L277.777 61.0032L268.951 67.6262C267.124 68.9958 266.411 70.0428 266.85 70.6281C267.289 71.2135 268.493 70.8195 270.321 69.4499L279.146 62.8268L284.681 70.2004L275.807 76.8572C269.671 81.4614 264.309 80.6546 260.41 75.4538C256.459 70.1853 257.281 64.8456 263.371 60.2789L263.367 60.2864Z" fill="#282D35"/>
<path d="M282.242 79.5739L280.58 76.5457L286.482 73.3074L294.224 87.4203L288.321 90.6586L286.674 87.6567L273.33 94.9739L268.898 86.8912L282.242 79.5739Z" fill="#282D35"/>
<path d="M299.103 119.56L296.93 116.258L294.63 119.575L291.234 116.993L293.804 113.871L289.965 112.606L291.459 108.61L295.174 110.186L295.249 106.235L299.376 106.287L298.926 110.318L302.821 109.038L304.011 113.143L300.033 114.141L302.566 117.308L299.106 119.56H299.103Z" fill="#D64B4B"/>
<path d="M308.749 137.707L309.252 149.403C309.5 155.163 306.948 158.495 303.5 158.645C300.517 158.773 298.126 157.002 296.892 152.866C295.072 154.146 294.798 156.589 295.47 159.283L287.721 159.617C285.938 153.602 287.135 149.448 294.509 147.898L294.494 147.546L287.214 147.861L286.816 138.648L308.749 137.703V137.707ZM301.203 149.572C302.839 149.501 303.226 148.255 303.267 147.17L298.967 147.354C299.102 148.431 299.623 149.639 301.199 149.572H301.203Z" fill="#282D35"/>
<path d="M309.338 162.608L307.699 178.593L301.001 177.906L301.699 171.092L300.389 170.957L299.841 176.315L294.017 175.719L294.569 170.36L293.259 170.225L292.561 177.039L285.863 176.353L287.503 160.367L309.338 162.608Z" fill="#282D35"/>
<path d="M285.991 189.689L286.727 186.796L283.728 185.76L286.002 176.825L306.554 185.073L302.588 200.676L280.591 198.102L282.865 189.167L285.995 189.693L285.991 189.689ZM291.777 190.679L298.779 191.888L299.012 190.98L292.284 188.694L291.777 190.679Z" fill="#282D35"/>
<path d="M290.719 201.603C298.107 204.717 299.89 209.915 297.342 215.956C296.377 218.249 294.494 221.359 292.835 222.504L284.264 218.575C285.968 216.721 289.372 211.359 287.023 210.369C284.621 209.355 283.518 215.371 283.075 218.076L274.414 214.744C274.08 212.823 275.041 209.262 276.009 206.969C278.681 200.631 283.705 198.654 290.719 201.607V201.603Z" fill="#282D35"/>
<path d="M273.176 228.902L274.404 226.909L268.347 223.179L273.184 215.329L291.871 226.846L287.034 234.696L281.004 230.981L279.777 232.973L285.807 236.688L280.97 244.538L262.283 233.022L267.12 225.172L273.176 228.902Z" fill="#282D35"/>
<path d="M265.563 246.456C271.345 252.013 271.143 257.503 266.599 262.231C262.054 266.955 256.576 267.375 250.797 261.818C245.27 256.505 245.202 251.082 249.912 246.185C254.681 241.228 260.081 241.183 265.567 246.456H265.563ZM255.713 251.762C255.206 252.291 255.788 253.416 257.431 255C259.203 256.703 260.31 257.158 260.797 256.651C261.285 256.144 260.786 255.056 259.015 253.353C257.368 251.769 256.219 251.232 255.713 251.762Z" fill="#282D35"/>
<path d="M249.184 263.21L255.852 272.073L248.486 277.616L241.852 268.798C240.478 266.974 239.431 266.261 238.846 266.7C238.261 267.139 238.655 268.343 240.028 270.171L246.662 278.989L239.296 284.531L232.628 275.668C228.016 269.54 228.819 264.178 234.009 260.272C239.27 256.313 244.61 257.131 249.188 263.21H249.184Z" fill="#282D35"/>
<path d="M229.915 282.119L232.939 280.453L236.185 286.352L222.08 294.112L218.834 288.213L221.836 286.562L214.5 273.226L222.579 268.783L229.915 282.119Z" fill="#282D35"/>
<path d="M189.955 299.023L193.254 296.843L189.933 294.547L192.511 291.143L195.636 293.71L196.897 289.867L200.897 291.357L199.329 295.076L203.28 295.143L203.231 299.271L199.201 298.828L200.488 302.723L196.387 303.917L195.381 299.943L192.218 302.479L189.963 299.02L189.955 299.023Z" fill="#D64B4B"/>
<path d="M171.809 308.697L160.112 309.215C154.352 309.47 151.017 306.922 150.863 303.47C150.731 300.487 152.499 298.093 156.634 296.858C155.351 295.038 152.908 294.768 150.214 295.444L149.872 287.695C155.887 285.905 160.041 287.098 161.598 294.472L161.947 294.457L161.625 287.177L170.837 286.768L171.809 308.701V308.697ZM159.932 301.166C160.004 302.802 161.253 303.189 162.338 303.226L162.146 298.926C161.069 299.061 159.861 299.583 159.929 301.162L159.932 301.166Z" fill="#282D35"/>
<path d="M146.919 309.32L130.93 307.703L131.609 301.005L138.423 301.695L138.555 300.386L133.196 299.842L133.785 294.018L139.144 294.562L139.275 293.252L132.461 292.562L133.14 285.864L149.129 287.481L146.919 309.32Z" fill="#282D35"/>
<path d="M119.789 285.999L122.682 286.73L123.714 283.728L132.652 285.991L124.431 306.554L108.824 302.607L111.372 280.606L120.31 282.869L119.789 285.999ZM118.806 291.789L117.609 298.794L118.517 299.023L120.794 292.292L118.809 291.789H118.806Z" fill="#282D35"/>
<path d="M107.894 290.746C104.787 298.142 99.5933 299.924 93.5482 297.387C91.2554 296.423 88.1372 294.543 86.9927 292.888L90.914 284.314C92.7714 286.014 98.1374 289.413 99.1243 287.064C100.134 284.663 94.1185 283.563 91.413 283.124L94.7377 274.456C96.6589 274.119 100.224 275.079 102.516 276.04C108.858 278.704 110.843 283.729 107.894 290.746Z" fill="#282D35"/>
<path d="M80.5724 273.233L82.5687 274.46L86.2948 268.4L94.1486 273.229L82.6512 291.931L74.7974 287.102L78.5048 281.068L76.5085 279.841L72.8011 285.875L64.9473 281.046L76.4447 262.344L84.2985 267.173L80.5724 273.233Z" fill="#282D35"/>
<path d="M63.0102 265.642C57.4603 271.428 51.9705 271.233 47.2387 266.696C42.5069 262.159 42.0829 256.681 47.6327 250.895C52.9386 245.36 58.3609 245.289 63.2616 249.987C68.226 254.748 68.2748 260.148 63.0102 265.642ZM57.6892 255.799C57.1601 255.292 56.0344 255.874 54.4546 257.521C52.751 259.296 52.3007 260.403 52.8073 260.887C53.3139 261.375 54.4021 260.876 56.1019 259.101C57.6817 257.454 58.2183 256.306 57.6892 255.799Z" fill="#282D35"/>
<path d="M46.2341 249.285L37.3783 255.964L31.8285 248.602L40.6392 241.956C42.4629 240.583 43.1721 239.532 42.7331 238.947C42.294 238.362 41.0857 238.759 39.2658 240.133L30.4551 246.778L24.9053 239.416L33.761 232.737C39.8812 228.117 45.2472 228.913 49.161 234.099C53.1273 239.356 52.3167 244.696 46.2416 249.281L46.2341 249.285Z" fill="#282D35"/>
<path d="M27.3025 230.035L28.9723 233.059L23.0773 236.313L15.3022 222.219L21.1973 218.965L22.8521 221.964L36.1807 214.613L40.6349 222.684L27.31 230.035H27.3025Z" fill="#282D35"/>
<path d="M10.3455 190.102L12.5294 193.396L14.8221 190.072L18.2256 192.646L15.6627 195.772L19.5051 197.029L18.0229 201.029L14.3005 199.464L14.2367 203.415L10.1091 203.37L10.5481 199.34L6.65683 200.631L5.45605 196.53L9.42988 195.52L6.88948 192.361L10.3455 190.102Z" fill="#D64B4B"/>
<path d="M0.653043 171.977L0.120198 160.281C-0.142472 154.521 2.40167 151.182 5.85015 151.024C8.83333 150.889 11.2274 152.652 12.4732 156.788C14.2894 155.504 14.5595 153.058 13.8803 150.363L21.6291 150.011C23.4265 156.022 22.2408 160.18 14.8672 161.748L14.8822 162.101L22.162 161.767L22.5822 170.979L0.64929 171.981L0.653043 171.977ZM8.1654 160.09C6.52934 160.165 6.1466 161.414 6.10532 162.499L10.4056 162.304C10.2668 161.227 9.74517 160.018 8.1654 160.09Z" fill="#282D35"/>
<path d="M0.00375243 147.073L1.60229 131.083L8.30037 131.755L7.61743 138.57L8.92702 138.701L9.46362 133.342L15.2874 133.924L14.7508 139.283L16.0604 139.414L16.7433 132.599L23.4414 133.271L21.8429 149.26L0 147.073H0.00375243Z" fill="#282D35"/>
<path d="M23.2871 119.924L22.5591 122.821L25.561 123.849L23.3096 132.791L2.73877 124.592L6.66756 108.982L28.668 111.503L26.4166 120.445L23.2871 119.928V119.924ZM17.4971 118.948L10.4913 117.759L10.2624 118.667L16.9942 120.933L17.4933 118.948H17.4971Z" fill="#282D35"/>
<path d="M18.5294 108.029C11.1333 104.933 9.33967 99.7395 11.8726 93.6906C12.8332 91.3941 14.7094 88.2796 16.3642 87.1313L24.946 91.0414C23.2462 92.8988 19.8577 98.2723 22.2067 99.2554C24.6083 100.261 25.7003 94.2459 26.1355 91.5404L34.8074 94.8538C35.1451 96.7713 34.192 100.34 33.2314 102.633C30.5747 108.978 25.5539 110.967 18.5331 108.029H18.5294Z" fill="#282D35"/>
<path d="M36.0043 80.6847L34.781 82.681L40.8449 86.3959L36.0268 94.2573L17.3135 82.7861L22.1316 74.9248L28.1692 78.6247L29.3925 76.6284L23.3549 72.9285L28.173 65.0671L46.8864 76.5383L42.0682 84.3996L36.0043 80.6847Z" fill="#282D35"/>
<path d="M43.573 63.1121C37.7792 57.566 37.9669 52.0762 42.4998 47.3406C47.0327 42.6051 52.5075 42.1698 58.305 47.7159C63.8473 53.0181 63.9261 58.4403 59.2318 63.3485C54.4775 68.3205 49.074 68.3767 43.5767 63.1158L43.573 63.1121ZM53.4118 57.7799C53.9184 57.2508 53.333 56.1251 51.6857 54.5453C49.9108 52.8454 48.8001 52.3952 48.316 52.9017C47.832 53.4083 48.3311 54.4965 50.106 56.1964C51.757 57.7761 52.9053 58.309 53.4118 57.7799Z" fill="#282D35"/>
<path d="M59.9113 46.3161L53.2207 37.4678L60.5755 31.9067L67.2323 40.7099C68.6094 42.5299 69.6601 43.2428 70.2417 42.8C70.8271 42.3572 70.4293 41.1527 69.0522 39.3328L62.3954 30.5296L69.7501 24.9685L76.4407 33.8167C81.0675 39.9332 80.2794 45.2992 75.0936 49.2167C69.8402 53.1868 64.4967 52.3837 59.9075 46.3123L59.9113 46.3161Z" fill="#282D35"/>
<path d="M79.1351 27.3628L76.1144 29.0364L72.8535 23.1451L86.9401 15.3513L90.201 21.2426L87.2028 22.9012L94.5726 36.2186L86.5048 40.6839L79.1351 27.3666V27.3628Z" fill="#282D35"/>
<path d="M119.065 10.3567L115.77 12.5443L119.095 14.8333L116.524 18.2405L113.395 15.6814L112.145 19.5276L108.141 18.0491L109.702 14.3267L105.751 14.2667L105.789 10.139L109.819 10.5743L108.524 6.68304L112.625 5.47852L113.639 9.45234L116.798 6.90819L119.061 10.3604L119.065 10.3567Z" fill="#D64B4B"/>
</svg>
