<svg width="288" height="290" viewBox="0 0 288 290" fill="none" xmlns="http://www.w3.org/2000/svg">
<path d="M128.755 12.6975C128.398 4.60203 132.373 0.726228 138.993 0.433909C141.504 0.32386 145.163 0.695277 146.924 1.71323L147.048 11.2428C144.616 10.4897 138.247 9.70558 138.361 12.278C138.478 14.9089 144.444 13.3131 147.106 12.5428L147.815 21.897C146.205 23.0319 142.536 23.6991 140.025 23.8091C133.082 24.1152 129.096 20.3838 128.759 12.701L128.755 12.6975Z" fill="#F0ECD9"/>
<path d="M149.548 11.8138C150.514 3.76641 155.068 0.592176 161.643 1.37972C168.219 2.16726 171.891 6.33538 170.925 14.3793C170 22.0725 165.667 25.4255 158.854 24.607C151.952 23.7782 148.63 19.4485 149.548 11.8138ZM159.827 16.5356C160.56 16.625 161.117 15.4695 161.392 13.1791C161.688 10.7133 161.382 9.54401 160.677 9.45804C159.972 9.37206 159.397 10.4382 159.102 12.904C158.826 15.1944 159.095 16.4462 159.827 16.5356Z" fill="#F0ECD9"/>
<path d="M192.966 20.7759L192.013 20.4526L187.023 30.78L180.111 28.4209L182.47 17.1958L181.517 16.8725L178.429 27.85L169.893 24.9405L177.053 3.94861L189.032 8.03419L186.672 19.2592L187.429 19.5172L192.419 9.18971L204.401 13.2753L197.241 34.2672L188.705 31.3544L192.969 20.7793L192.966 20.7759Z" fill="#F0ECD9"/>
<path d="M208.82 15.944L222.896 24.0361L219.505 29.934L213.504 26.4847L212.84 27.6367L217.558 30.3502L214.611 35.4778L209.893 32.7644L209.229 33.9164L215.23 37.3658L211.839 43.2638L197.763 35.1717L208.82 15.9406V15.944Z" fill="#F0ECD9"/>
<path d="M226.414 26.2509L234.571 32.8126C239.733 36.9635 240.524 42.1152 235.724 48.0854C231.126 53.8011 226.019 54.396 220.671 50.0972L212.513 43.5355L226.414 26.2509ZM228.505 42.2011C229.97 40.3819 230.29 39.2711 228.839 38.1052L224.612 43.3601C226.087 44.5466 227.133 43.9069 228.505 42.2011Z" fill="#F0ECD9"/>
<path d="M236.146 54.4992L243.148 39.7629L249.634 46.8543L244.892 52.2742L245.411 52.8416L251.23 48.6013L257.716 55.6926L242.498 61.312L237.216 66.1404L230.929 59.2658L236.146 54.4958V54.4992Z" fill="#F0ECD9"/>
<path d="M254.673 70.6387C261.706 66.615 266.971 68.3723 270.262 74.1224C271.51 76.3028 272.855 79.7246 272.755 81.7605L265.114 85.7911C264.67 83.284 262.194 77.4101 259.446 78.9818C257.957 79.8347 258.187 81.1312 259.085 82.4587L260.725 81.451L263.662 86.5855L263.215 86.8744L255.223 91.7888C253.476 90.8809 251.203 87.9199 249.954 85.7395C246.502 79.7074 247.998 74.456 254.673 70.6387Z" fill="#F0ECD9"/>
<path d="M264.99 88.7417C272.593 85.9355 277.494 88.5423 279.788 94.7566C282.082 100.971 280.046 106.136 272.442 108.943C265.172 111.625 260.213 109.293 257.837 102.856C255.429 96.3352 257.771 91.4036 264.986 88.7417H264.99ZM265.468 100.039C265.722 100.734 267.005 100.703 269.168 99.9015C271.5 99.0417 272.401 98.237 272.153 97.5698C271.909 96.9026 270.699 96.8751 268.367 97.7383C266.204 98.5362 265.21 99.3443 265.464 100.039H265.468Z" fill="#F0ECD9"/>
<path d="M283.805 108.881L285.614 118.022L270.527 121.007L271.871 127.796L265.199 129.116L262.049 113.187L283.808 108.881H283.805Z" fill="#F0ECD9"/>
<path d="M287.584 128.944L287.987 139.406C288.241 146.026 284.874 150.005 277.219 150.297C269.89 150.579 266.087 147.116 265.822 140.259L265.42 129.797L287.584 128.944ZM276.92 140.988C279.255 140.898 280.3 140.413 280.228 138.553L273.491 138.811C273.563 140.702 274.733 141.07 276.92 140.988Z" fill="#F0ECD9"/>
<path d="M277.037 181.397L276.717 177.414L273.065 179.233L271.311 175.292L275.104 173.779L272.318 170.791L275.586 167.977L278.11 171.183L280.101 167.719L283.733 169.776L281.373 173.126L285.445 173.889L284.5 178.102L280.493 177.05L281.195 181.087L277.033 181.397H277.037Z" fill="#D64B4B"/>
<path d="M266.702 196.659C273.911 200.359 275.31 205.731 272.284 211.626C271.135 213.861 269 216.856 267.242 217.881L258.906 213.27C260.763 211.529 264.601 206.385 262.311 205.212C259.969 204.008 258.397 209.985 257.747 212.678L249.27 208.658C249.081 206.698 250.319 203.179 251.467 200.944C254.642 194.761 259.859 193.151 266.699 196.662L266.702 196.659Z" fill="#F0ECD9"/>
<path d="M257.156 215.171C263.659 220.007 264.151 225.537 260.199 230.853C256.248 236.17 250.807 237.285 244.304 232.446C238.086 227.82 237.333 222.393 241.429 216.888C245.576 211.309 250.986 210.58 257.156 215.168V215.171ZM247.956 221.743C247.516 222.338 248.242 223.394 250.092 224.77C252.086 226.252 253.252 226.568 253.675 225.998C254.098 225.427 253.462 224.402 251.467 222.92C249.617 221.544 248.396 221.152 247.956 221.743Z" fill="#F0ECD9"/>
<path d="M227.834 248.413L228.587 247.746L222.084 238.296L227.556 233.457L236.14 241.064L236.893 240.397L228.883 232.277L235.641 226.3L250.336 242.918L240.855 251.306L232.271 243.698L231.672 244.228L238.176 253.679L228.694 262.066L213.999 245.449L220.757 239.472L227.834 248.413Z" fill="#F0ECD9"/>
<path d="M224.22 264.567L210.233 272.813L206.78 266.953L212.74 263.439L212.066 262.293L207.379 265.058L204.377 259.962L209.064 257.197L208.39 256.051L202.43 259.566L198.977 253.706L212.964 245.463L224.227 264.57L224.22 264.567Z" fill="#F0ECD9"/>
<path d="M206.557 274.791L196.821 278.639C190.658 281.074 185.789 279.213 182.975 272.088C180.279 265.265 182.288 260.529 188.67 258.008L198.41 254.16L206.56 274.791H206.557ZM191.662 268.717C192.522 270.891 193.323 271.716 195.057 271.032L192.577 264.759C190.816 265.454 190.854 266.678 191.659 268.714L191.662 268.717Z" fill="#F0ECD9"/>
<path d="M177.177 269.271L186.497 282.666L177.119 284.774L174.77 277.965L174.02 278.133L174.811 285.294L165.433 287.402L168.108 271.4L166.537 264.415L175.626 262.369L177.177 269.264V269.271Z" fill="#F0ECD9"/>
<path d="M154.221 277.174C154.352 285.276 150.273 289.039 143.65 289.145C141.136 289.187 137.49 288.712 135.757 287.646L135.912 279.007C138.319 279.825 144.661 280.493 144.609 277.329C144.582 275.613 143.333 275.19 141.738 275.334L141.827 277.257L135.912 277.353L135.874 276.82L135.427 267.452C137.064 266.362 140.754 265.798 143.268 265.756C150.218 265.643 154.094 269.484 154.218 277.174H154.221Z" fill="#F0ECD9"/>
<path d="M133.157 277.308C131.837 285.304 127.149 288.279 120.612 287.199C114.074 286.119 110.59 281.796 111.911 273.8C113.173 266.155 117.651 262.998 124.422 264.116C131.28 265.247 134.409 269.722 133.157 277.308ZM123.098 272.139C122.369 272.019 121.764 273.147 121.386 275.423C120.98 277.876 121.234 279.055 121.936 279.172C122.637 279.289 123.256 278.25 123.662 275.798C124.037 273.522 123.827 272.26 123.098 272.139Z" fill="#F0ECD9"/>
<path d="M106.347 283.708L97.5082 280.761L102.371 266.169L95.8059 263.982L97.9553 257.527L113.359 262.661L106.347 283.705V283.708Z" fill="#F0ECD9"/>
<path d="M87.0053 277.067L77.7164 272.235C71.8391 269.178 70.0542 264.281 73.5896 257.485C76.977 250.979 81.8708 249.39 87.9579 252.557L97.2468 257.389L87.0053 277.067ZM81.8295 261.836C80.7497 263.91 80.6534 265.058 82.3041 265.918L85.4165 259.934C83.7382 259.06 82.8372 259.893 81.8261 261.832L81.8295 261.836Z" fill="#F0ECD9"/>
<path d="M46.6997 241.876L50.3142 243.575L50.548 239.503L54.8399 239.936L54.2691 243.98L58.2446 243.045L59.0631 247.278L55.0291 247.88L57.0478 251.326L53.4609 253.458L51.7242 249.748L49.0417 252.905L45.8537 249.992L48.7563 247.034L44.9045 245.638L46.7032 241.872L46.6997 241.876Z" fill="#D64B4B"/>
<path d="M38.5698 225.354C31.7915 229.798 26.43 228.36 22.7984 222.816C21.4193 220.715 19.8717 217.379 19.8477 215.343L27.9741 210.37C28.5691 212.843 31.1484 218.72 33.3012 217.31C35.5022 215.866 31.083 211.55 29.0643 209.655L36.7437 204.27C38.5423 205.071 40.9875 207.887 42.3665 209.992C46.177 215.804 45.0008 221.135 38.5698 225.351V225.354Z" fill="#F0ECD9"/>
<path d="M27.1865 207.908C19.7685 211.168 14.72 208.868 12.0513 202.801C9.38604 196.738 11.1021 191.459 18.5201 188.199C25.6115 185.08 30.7047 187.109 33.4662 193.389C36.2622 199.751 34.2263 204.813 27.1865 207.908ZM26.0207 196.663C25.7215 195.985 24.4456 196.095 22.334 197.024C20.0608 198.024 19.2114 198.881 19.4968 199.531C19.7823 200.181 20.9894 200.132 23.2626 199.135C25.3742 198.207 26.3165 197.34 26.0207 196.663Z" fill="#F0ECD9"/>
<path d="M12.8252 165.962L13.0281 166.946L24.4595 165.993L25.9452 173.146L15.0778 176.819L15.2807 177.803L26.3063 174.879L28.1393 183.714L6.4183 188.22L3.8459 175.825L14.7133 172.152L14.5516 171.372L3.12026 172.324L0.547852 159.93L22.2689 155.425L24.1019 164.256L12.8252 165.962Z" fill="#F0ECD9"/>
<path d="M0.630264 154.895L0.368896 138.66L7.17133 138.549L7.28482 145.469L8.61573 145.448L8.52975 140.008L14.4449 139.911L14.5343 145.352L15.8652 145.331L15.7517 138.412L22.5542 138.302L22.8155 154.538L0.637142 154.895H0.630264Z" fill="#F0ECD9"/>
<path d="M0.489258 134.419L1.96117 124.054C2.89315 117.496 6.92027 114.184 14.5034 115.26C21.7666 116.292 24.8893 120.381 23.9229 127.173L22.451 137.538L0.489258 134.419ZM13.1346 124.477C10.8202 124.147 9.7059 124.436 9.44109 126.282L16.1163 127.232C16.3811 125.357 15.2978 124.786 13.1312 124.477H13.1346Z" fill="#F0ECD9"/>
<path d="M19.8132 111.625L3.56372 113.104L6.36654 103.911L13.4441 105.235L13.6676 104.499L7.05435 101.648L9.85717 92.4559L22.4441 102.691L29.2912 104.778L26.5744 113.689L19.8132 111.629V111.625Z" fill="#F0ECD9"/>
<path d="M24.2841 87.4625C17.2444 83.4457 16.0854 78.0188 19.3697 72.2653C20.6146 70.0815 22.881 67.1858 24.6796 66.2401L32.0323 70.7762C30.0995 72.4304 26.2959 77.5477 29.0437 79.1159C30.5328 79.9653 31.5336 79.1056 32.2249 77.6612L30.526 76.7602L33.456 71.6222L33.9341 71.8595L42.2222 76.2477C42.3253 78.2149 40.9291 81.6746 39.6841 83.8583C36.2382 89.8939 30.9593 91.2729 24.2807 87.4625H24.2841Z" fill="#F0ECD9"/>
<path d="M34.6391 69.3937C28.3559 64.2764 28.1049 58.7292 32.2902 53.5912C36.4755 48.4533 41.9573 47.5798 48.2405 52.6971C54.2485 57.5908 54.7644 63.0486 50.4312 68.3688C46.0395 73.7578 40.6024 74.2496 34.6425 69.3937H34.6391ZM44.1205 63.2309C44.5882 62.6566 43.9073 61.5698 42.119 60.1151C40.1931 58.5469 39.041 58.1789 38.594 58.7292C38.1469 59.2794 38.7384 60.3352 40.6643 61.9034C42.4526 63.3616 43.6562 63.8052 44.1205 63.2309Z" fill="#F0ECD9"/>
<path d="M42.3767 42.9715L49.3133 36.7502L59.5823 48.1988L64.7339 43.5768L69.2769 48.6425L57.1887 59.4823L42.3801 42.968L42.3767 42.9715Z" fill="#F0ECD9"/>
<path d="M57.6978 29.4699L66.488 23.7817C72.0489 20.181 77.1903 21.0476 81.3515 27.4786C85.3374 33.638 84.2988 38.6762 78.5384 42.4041L69.7482 48.0923L57.6978 29.4699ZM73.5002 32.4893C72.2312 30.5291 71.2785 29.8757 69.7172 30.8867L73.3798 36.5474C74.9686 35.5191 74.6901 34.3258 73.5002 32.4893Z" fill="#F0ECD9"/>
<path d="M108.231 11.8207L104.964 14.118L108.386 16.3396L105.886 19.8508L102.653 17.3507L101.494 21.2677L97.4084 19.8818L98.8838 16.0782L94.8911 16.1264L94.8188 11.9548L98.9044 12.2815L97.491 8.38851L101.601 7.06104L102.732 11.0469L105.851 8.39195L108.231 11.8172V11.8207Z" fill="#D64B4B"/>
</svg>
