<svg width="119" height="115" viewBox="0 0 119 115" fill="none" xmlns="http://www.w3.org/2000/svg">
<path d="M27.9524 91.1814C29.0155 90.3487 30.2021 89.7397 31.2237 88.8672C32.49 87.7927 33.7563 86.7181 35.0277 85.65C46.09 76.3964 57.5426 67.6016 69.3359 59.2945L72.9273 65.5023L72.9209 65.5073L72.186 65.9279C60.462 74.6665 49.0153 83.7459 37.087 92.2105C36.8628 92.3861 36.6172 92.5475 36.3421 92.6183C36.0134 92.7001 35.6722 92.647 35.3374 92.5889C32.8708 92.1443 30.4121 91.6832 27.9575 91.1878L27.9524 91.1814Z" fill="#F0ECD9"/>
<path d="M80.2267 78.1465C82.2209 73.7532 83.4292 69.0559 84.6348 64.3814C86.2908 57.9074 87.9583 51.4348 89.6207 44.9558C90.3777 42.0173 90.8066 39.1084 91.5379 36.1899C91.7112 35.5272 93.042 29.9177 93.7509 27.9468L94.0235 27.1339C95.6347 29.4679 97.7397 32.0763 99.3623 34.4117C99.5838 34.7342 99.814 35.0808 99.8596 35.4688C99.8898 35.7448 99.8222 36.0147 99.7597 36.2911C97.7114 44.7049 95.1347 52.985 92.5708 61.255C91.0979 65.9839 89.625 70.7129 88.1585 75.4368C87.2728 78.2901 86.3729 81.1649 84.8548 83.7386C83.4695 81.9304 82.0892 80.1286 80.709 78.3267L80.2267 78.1465Z" fill="#F0ECD9"/>
<path d="M27.6348 91.4493C26.5785 89.6521 25.6945 87.7715 24.7022 85.9242C22.7608 82.3506 20.8208 78.7655 19.0211 75.1223C17.9234 72.9028 16.8805 70.6611 15.8682 68.4057C14.9725 66.431 14.3017 64.0838 13.186 62.2504C13.1122 62.1429 13.0425 62.0011 13.1135 61.8939C13.1368 61.8446 13.1867 61.8159 13.2301 61.7922C15.1796 60.6269 17.1679 59.5242 19.1361 58.3959C24.9973 55.0347 30.9632 51.8602 37.0786 48.9819C43.9918 45.737 51.1722 42.8201 57.2058 38.1356C57.0471 38.2496 53.6741 32.0567 53.3784 31.534C52.324 29.6733 50.9526 27.9885 49.901 26.1049C48.9204 24.3517 47.6729 22.3632 47.1975 20.4106C49.0282 20.1753 51.3185 20.8304 53.1319 21.1666C55.133 21.5316 57.1308 21.9714 59.1186 22.3984C61.9303 23.0067 64.7548 23.605 67.6149 23.9584C70.4129 24.2984 73.0901 24.7745 75.8819 25.2123C81.9262 26.1614 88.0106 26.7792 94.1053 27.265C94.0304 27.2617 93.9007 27.5183 93.7502 27.9462C93.0413 29.917 91.7105 35.5266 91.5373 36.1893C90.8059 39.1078 90.377 42.0166 89.62 44.9552C87.9576 51.4342 86.2901 57.9068 84.6341 64.3808C83.4286 69.0553 82.2202 73.7526 80.2261 78.1458C77.7945 73.9332 75.3629 69.7206 72.9198 65.5066L72.9263 65.5016L69.3349 59.2937C57.5416 67.6009 46.0889 76.3957 35.0267 85.6493C33.7553 86.7174 32.489 87.7919 31.2227 88.8664C30.2011 89.7389 29.0095 90.3416 27.9514 91.1807C27.8426 91.2659 27.7387 91.3576 27.6348 91.4493Z" fill="#282D35"/>
<path d="M27.9514 91.1807C27.8426 91.2659 27.7387 91.3576 27.6348 91.4493C26.5785 89.6521 25.6945 87.7715 24.7022 85.9242C22.7608 82.3506 20.8208 78.7655 19.0211 75.1223C17.9234 72.9028 16.8805 70.6611 15.8682 68.4057C14.9725 66.431 14.3017 64.0838 13.186 62.2504C13.1122 62.1429 13.0425 62.0011 13.1135 61.8939C13.1368 61.8446 13.1867 61.8159 13.2301 61.7922C15.1796 60.6269 17.1679 59.5242 19.1361 58.3959C24.9973 55.0347 30.9632 51.8602 37.0786 48.9819C43.9918 45.737 51.1722 42.8201 57.2058 38.1356C56.1324 36.1451 53.6741 32.0567 53.3784 31.534C52.324 29.6733 50.9526 27.9885 49.901 26.1049C48.9204 24.3517 47.6729 22.3632 47.1975 20.4106C49.0282 20.1753 51.3185 20.8304 53.1319 21.1666C55.133 21.5316 57.1308 21.9714 59.1186 22.3984C61.9303 23.0067 64.7548 23.605 67.6149 23.9584C70.4129 24.2984 73.0901 24.7745 75.8819 25.2123C81.9262 26.1614 88.0106 26.7792 94.1053 27.265C94.0304 27.2617 93.9007 27.5183 93.7502 27.9462C93.0413 29.917 91.7105 35.5266 91.5373 36.1893C90.8059 39.1078 90.377 42.0166 89.62 44.9552C87.9576 51.4342 86.2901 57.9068 84.6341 64.3808C83.4286 69.0553 82.2202 73.7526 80.2261 78.1458C77.7945 73.9332 75.3629 69.7206 72.9198 65.5066L72.9262 65.5016L69.3349 59.2937C57.5416 67.6009 46.0889 76.3957 35.0267 85.6493C33.7553 86.7174 32.489 87.7919 31.2227 88.8664C30.2011 89.7389 29.0095 90.3416 27.9514 91.1807Z" stroke="#282D35" stroke-width="1.5" stroke-miterlimit="10"/>
<path d="M27.6738 91.5C30.1284 91.9954 32.8687 92.143 35.3352 92.5876C35.6701 92.6457 36.0113 92.6988 36.3399 92.617C36.6151 92.5462 36.8557 92.3784 37.0848 92.2092C49.0131 83.7446 60.8107 74.4008 72.5347 65.6622" stroke="#282D35" stroke-width="1.5" stroke-miterlimit="10"/>
<path d="M80.6045 77.9431C81.9847 79.7449 83.4691 81.9302 84.8545 83.7384C86.3725 81.1647 87.2724 78.2899 88.1581 75.4366C89.6246 70.7127 91.0975 65.9837 92.5704 61.2548C95.1343 52.9848 97.711 44.7047 99.7593 36.2908C99.8218 36.0145 99.8894 35.7446 99.8592 35.4686C99.8137 35.0806 99.5835 34.7339 99.3619 34.4115C97.7394 32.0761 95.4101 29.6432 93.799 27.3092" stroke="#282D35" stroke-width="1.5" stroke-miterlimit="10"/>
</svg>
