<svg width="26" height="26" viewBox="0 0 26 26" fill="none" xmlns="http://www.w3.org/2000/svg">
<path d="M12.9999 0C5.82041 0 0 5.8204 0 13.0001C0 20.1801 5.82041 26 12.9999 26C20.1802 26 26 20.1801 26 13.0001C26 5.82086 20.1802 0.000620959 12.9998 0.000620959L12.9999 0ZM18.9616 18.7498C18.9061 18.8407 18.8333 18.9198 18.7472 18.9825C18.6611 19.0452 18.5635 19.0904 18.46 19.1153C18.3565 19.1402 18.249 19.1445 18.1439 19.1279C18.0387 19.1113 17.9378 19.0741 17.847 19.0184C14.7948 17.154 10.9524 16.7317 6.42723 17.7656C6.2177 17.8133 5.99782 17.7758 5.81592 17.6614C5.63402 17.547 5.50498 17.365 5.45716 17.1555C5.43335 17.0518 5.43023 16.9444 5.44798 16.8394C5.46573 16.7345 5.50401 16.6341 5.56062 16.544C5.61724 16.4539 5.69107 16.3758 5.7779 16.3142C5.86472 16.2527 5.96284 16.2089 6.06662 16.1853C11.0186 15.0539 15.2664 15.541 18.693 17.6352C19.0749 17.8696 19.196 18.368 18.9616 18.7498ZM20.5528 15.2101C20.2594 15.687 19.6353 15.8375 19.1588 15.5441C15.6644 13.3962 10.3378 12.7742 6.20463 14.0288C5.6686 14.1908 5.10245 13.8887 4.93976 13.3536C4.86213 13.0963 4.88969 12.8187 5.0164 12.5818C5.1431 12.3448 5.35861 12.1677 5.61566 12.0894C10.3369 10.6569 16.2062 11.3508 20.219 13.8168C20.6956 14.1102 20.8462 14.7341 20.5528 15.2101ZM20.6894 11.5241C16.4996 9.03541 9.5869 8.80659 5.58663 10.0207C4.94426 10.2155 4.26495 9.8529 4.07029 9.21052C3.97668 8.9019 4.00948 8.56873 4.16147 8.28428C4.31345 7.99983 4.57219 7.78739 4.88077 7.69368C9.47281 6.29962 17.1065 6.56896 21.9303 9.43267C22.0678 9.514 22.1879 9.62165 22.2837 9.74947C22.3795 9.87728 22.4492 10.0227 22.4887 10.1775C22.5282 10.3323 22.5368 10.4933 22.514 10.6514C22.4911 10.8095 22.4374 10.9616 22.3557 11.0989C22.0142 11.6767 21.2659 11.8671 20.69 11.5241H20.6894Z" fill="#F0ECD9"/>
</svg>
