<svg width="26" height="26" viewBox="0 0 26 26" fill="none" xmlns="http://www.w3.org/2000/svg">
<path d="M8.02911 22H4.29732V9.98232H8.02911V22ZM6.16121 8.343C4.9679 8.343 4 7.35458 4 6.16125C4 5.58805 4.2277 5.03833 4.633 4.63302C5.03831 4.2277 5.58802 4 6.16121 4C6.73439 4 7.2841 4.2277 7.68941 4.63302C8.09471 5.03833 8.32241 5.58805 8.32241 6.16125C8.32241 7.35458 7.35411 8.343 6.16121 8.343ZM21.996 22H18.2722V16.1499C18.2722 14.7556 18.2441 12.9677 16.332 12.9677C14.3918 12.9677 14.0945 14.4824 14.0945 16.0494V22H10.3667V9.98232H13.9458V11.6216H13.998C14.4963 10.6774 15.7133 9.68097 17.5289 9.68097C21.3057 9.68097 22 12.1681 22 15.3985V22H21.996Z" fill="#F0ECD9"/>
</svg>
