<svg width="28" height="30" viewBox="0 0 28 30" fill="none" xmlns="http://www.w3.org/2000/svg">
<path d="M26.6306 5.42529C26.5043 6.08838 26.5179 7.36494 26.3961 8.02803C26.3419 8.29417 26.2923 8.56482 26.166 8.80841C26.0307 9.06552 25.8142 9.27302 25.6067 9.47601C23.7212 11.3029 21.8311 13.1207 19.9411 14.9386L19.8464 15.0333C19.4494 14.6319 19.0479 14.2394 18.6465 13.847C18.8359 13.3418 19.3051 13.0441 19.6479 12.6471C20.0403 12.196 20.4418 11.754 20.8523 11.3164C21.6552 10.4684 22.4942 9.65644 23.3693 8.88058C23.8384 8.46107 24.3166 8.0551 24.7722 7.61755C25.4578 6.94995 26.0848 6.21469 26.6306 5.42529Z" fill="#282D35"/>
<path d="M14.6415 18.3934C15.7601 19.3678 16.7435 20.4774 17.7314 21.5781C18.2321 22.1329 18.7328 22.6832 19.256 23.2155C19.7703 23.7387 20.4018 24.1808 20.8889 24.7176C21.0829 24.9296 21.2137 25.1551 21.4393 25.3536C21.6558 25.5431 21.8813 25.719 22.1159 25.8814C22.4361 26.1024 22.5173 26.0167 22.8286 25.8092C23.3158 25.4844 23.7894 25.1326 24.2405 24.7582C25.1291 24.0094 25.9365 23.1659 26.6402 22.2457C26.6718 22.196 26.7079 22.1464 26.7124 22.0878C26.6718 22.8682 26.8071 23.5989 26.753 24.3838C26.744 24.5687 26.7304 24.7537 26.6583 24.9206C26.532 25.2183 26.2027 25.3626 25.9726 25.5927C24.8224 26.7204 23.6947 27.7489 22.1971 28.9397C20.7626 27.5233 19.3237 26.1159 17.8892 24.6995C17.1901 24.0139 16.4954 23.3192 15.8052 22.6246C15.3406 22.16 14.8625 21.745 14.4069 21.2713C14.2355 21.0954 14.1227 21.118 13.9468 21.2578C13.1664 21.8803 12.3545 22.4126 11.6282 23.1117C10.92 23.7974 10.266 24.5326 9.59836 25.2544C9.3232 25.5566 6.50098 28.5 6.04384 28.9352C4.63646 27.9564 3.40501 26.8783 2.08334 25.7912C1.79916 25.5566 1.59166 25.4032 1.57362 25.0424C1.55557 24.7086 1.47438 24.483 1.47438 24.1492C1.47889 23.4771 1.38867 22.8501 1.38867 22.1103L1.53302 22.0111C1.57362 22.0652 1.61872 22.1148 1.66383 22.1645C2.86822 23.432 4.12674 24.6544 5.42585 25.8227C5.53862 25.922 5.66944 26.0302 5.81829 26.0348C6.1115 26.0393 6.46334 25.5386 6.68888 25.3717C7.0723 25.083 7.39257 24.7086 7.73088 24.3612C8.47517 23.5944 9.23298 22.8366 9.99982 22.0923C11.3125 20.8202 12.6341 19.3813 14.1633 18.3664C14.2445 18.3122 14.3347 18.2581 14.4294 18.2716C14.5106 18.2807 14.5828 18.3393 14.6415 18.3934Z" fill="#282D35"/>
<path d="M8.36165 15.0465C8.33008 15.0826 8.29399 15.1187 8.25791 15.1548L8.10003 15.0059C5.90326 12.737 3.711 10.468 1.51874 8.19908C1.34733 8.02315 1.17141 7.83821 1.08571 7.60365C1.02255 7.42321 1.01804 7.22023 1.01804 7.02626C1.00902 6.40377 1.00451 5.77677 1 5.15427L1.0406 5.13623C1.07217 5.23547 1.13984 5.32568 1.2075 5.40688C2.0014 6.36768 2.98025 7.22474 3.89143 8.07728C4.64023 8.77195 5.23115 9.57487 5.95739 10.2966C7.01292 11.3476 8.16318 12.2543 9.12849 13.3955C9.41267 13.7293 9.43523 13.7835 9.14202 14.1488C8.89393 14.4601 8.62779 14.7578 8.36165 15.0465Z" fill="#282D35"/>
<path d="M26.7117 22.0565V22.0881C26.7072 22.1467 26.6711 22.1963 26.6395 22.2459C25.9358 23.1662 25.1284 24.0097 24.2397 24.7585C23.7887 25.1329 23.315 25.4847 22.8279 25.8095C22.5166 26.017 22.4354 26.1027 22.1152 25.8817C21.8806 25.7193 21.655 25.5434 21.4385 25.3539C21.213 25.1554 21.0822 24.9299 20.8882 24.7179C20.401 24.1811 19.7695 23.739 19.2553 23.2158C18.732 22.6835 18.2313 22.1332 17.7306 21.5783C16.7428 20.4777 15.7594 19.368 14.6407 18.3937C14.5821 18.3396 14.5099 18.2809 14.4287 18.2719C14.334 18.2584 14.2438 18.3125 14.1626 18.3666C12.6334 19.3816 11.3117 20.8205 9.9991 22.0926C9.23226 22.8369 8.47444 23.5947 7.73016 24.3615C7.39185 24.7089 7.07158 25.0833 6.68816 25.3719C6.46262 25.5388 6.11077 26.0395 5.81757 26.035C5.66871 26.0305 5.5379 25.9223 5.42513 25.823C4.12601 24.6547 2.8675 23.4323 1.66311 22.1648C1.618 22.1151 1.57289 22.0655 1.53229 22.0114C1.46012 21.9121 1.40599 21.8039 1.41952 21.6821C1.43757 21.5287 1.56387 21.416 1.68115 21.3122C3.39977 19.8056 5.08682 18.2584 6.73327 16.6751C7.25201 16.1834 7.76624 15.6782 8.25792 15.1549C8.29401 15.1189 8.33009 15.0828 8.36167 15.0467C8.62781 14.758 8.89395 14.4603 9.14204 14.149C9.43524 13.7837 9.41269 13.7295 9.12851 13.3957C8.1632 12.2545 7.01294 11.3478 5.95741 10.2968C5.23116 9.57506 4.64025 8.77214 3.89145 8.07747C2.98027 7.22493 2.00142 6.36787 1.20751 5.40707C1.13985 5.32587 1.07219 5.23566 1.04061 5.13642C1.02708 5.09131 1.02257 5.0462 1.02708 4.99658C1.04061 4.85675 1.14887 4.74398 1.24811 4.64474C2.47054 3.45388 3.7877 2.36227 5.18606 1.37891C5.31236 1.2932 5.44768 1.19848 5.60556 1.19848C5.97996 1.19848 6.51675 1.76684 6.80544 1.97885C8.35265 3.21932 9.68785 4.66278 11.0411 6.12429C11.5779 6.71069 12.1147 7.30161 12.6424 7.89253C12.7958 8.06845 13.5942 8.82627 13.7386 8.72703C16.9187 6.60695 18.7771 2.93514 22.1061 1C23.4819 2.15477 25.5569 3.82377 26.6305 5.42511C26.0847 6.2145 25.4577 6.94977 24.772 7.61737C24.3164 8.05492 23.8383 8.46089 23.3692 8.8804C22.4941 9.65626 21.655 10.4682 20.8521 11.3162C20.4416 11.7538 20.0402 12.1958 19.6477 12.6469C19.3049 13.0439 18.8358 13.3416 18.6463 13.8468C19.0478 14.2392 19.4493 14.6317 19.8462 15.0332C22.1377 17.284 24.3931 19.5801 26.6169 21.9031C26.6575 21.9437 26.7072 21.9933 26.7117 22.0565Z" fill="#FFFAFA"/>
<path d="M1.04061 5.13642C1.07219 5.23566 1.13985 5.32587 1.20751 5.40707C2.00142 6.36787 2.98027 7.22493 3.89145 8.07747C4.64025 8.77214 5.23116 9.57506 5.95741 10.2968C7.01294 11.3478 8.1632 12.2545 9.12851 13.3957C9.41269 13.7295 9.43525 13.7837 9.14204 14.149C8.89395 14.4603 8.62781 14.758 8.36167 15.0467C8.3301 15.0828 8.29401 15.1189 8.25792 15.1549C7.76624 15.6782 7.25201 16.1834 6.73327 16.6751C5.08682 18.2584 3.39977 19.8056 1.68115 21.3122C1.56387 21.416 1.43757 21.5287 1.41952 21.6821C1.40599 21.8039 1.46012 21.9121 1.53229 22.0114C1.57289 22.0655 1.618 22.1151 1.66311 22.1648C2.8675 23.4323 4.12601 24.6547 5.42513 25.823C5.5379 25.9223 5.66871 26.0305 5.81757 26.035C6.11077 26.0395 6.46262 25.5388 6.68816 25.3719C7.07158 25.0833 7.39185 24.7089 7.73016 24.3615C8.47444 23.5947 9.23226 22.8369 9.9991 22.0926C11.3117 20.8205 12.6334 19.3816 14.1626 18.3666C14.2438 18.3125 14.334 18.2584 14.4287 18.2719C14.5099 18.2809 14.5821 18.3396 14.6407 18.3937C15.7594 19.368 16.7428 20.4777 17.7306 21.5783C18.2313 22.1332 18.732 22.6835 19.2553 23.2158C19.7695 23.739 20.401 24.1811 20.8882 24.7179C21.0822 24.9299 21.213 25.1554 21.4385 25.3539C21.655 25.5434 21.8806 25.7193 22.1152 25.8817C22.4354 26.1027 22.5166 26.017 22.8279 25.8095C23.315 25.4847 23.7887 25.1329 24.2397 24.7585C25.1284 24.0097 25.9358 23.1662 26.6395 22.2459C26.6711 22.1963 26.7072 22.1467 26.7117 22.0881C26.7162 22.0836 26.7162 22.0745 26.7162 22.07C26.7162 22.0655 26.7162 22.061 26.7117 22.0565C26.7072 21.9933 26.6575 21.9437 26.6169 21.9031C24.3931 19.5801 22.1377 17.284 19.8462 15.0332C19.4493 14.6317 19.0478 14.2392 18.6463 13.8468C18.8358 13.3416 19.3049 13.0439 19.6477 12.6469C20.0402 12.1958 20.4416 11.7538 20.8521 11.3162C21.655 10.4682 22.4941 9.65626 23.3692 8.8804C23.8383 8.46089 24.3164 8.05492 24.772 7.61737C25.4577 6.94977 26.0847 6.2145 26.6305 5.42511C25.5569 3.82377 23.4819 2.15477 22.1061 1C18.7771 2.93514 16.9187 6.60695 13.7386 8.72703C13.5942 8.82627 12.7958 8.06845 12.6424 7.89253C12.1147 7.30161 11.5779 6.71069 11.0411 6.12429C9.68785 4.66278 8.35265 3.21932 6.80544 1.97885C6.51675 1.76684 5.97996 1.19848 5.60556 1.19848C5.44768 1.19848 5.31236 1.2932 5.18606 1.37891C3.7877 2.36227 2.47054 3.45388 1.24811 4.64474C1.14887 4.74398 1.04061 4.85675 1.02708 4.99658C1.02257 5.0462 1.02708 5.09131 1.04061 5.13642Z" stroke="#282D35" stroke-miterlimit="10"/>
<path d="M1 5.1543C1.00451 5.77679 1.00902 6.40379 1.01804 7.02629C1.01804 7.22025 1.02255 7.42324 1.08571 7.60367C1.17141 7.83823 1.34733 8.02318 1.51874 8.1991C3.711 10.468 5.90326 12.737 8.10003 15.0059" stroke="#282D35" stroke-miterlimit="10"/>
<path d="M26.6309 5.42529C26.5046 6.08838 26.5182 7.36494 26.3964 8.02803C26.3423 8.29417 26.2926 8.56482 26.1663 8.80841C26.031 9.06552 25.8145 9.27302 25.607 9.47601C23.7215 11.3029 21.8314 13.1207 19.9414 14.9386" stroke="#282D35" stroke-miterlimit="10"/>
<path d="M1.50098 22C1.50098 22.7398 1.47912 23.4775 1.47461 24.1496C1.47461 24.4834 1.5558 24.7089 1.57385 25.0427C1.59189 25.4036 1.79939 25.557 2.08357 25.7915C3.40524 26.8786 4.63669 27.9567 6.04407 28.9356C6.50121 28.5 9.32343 25.557 9.59859 25.2547C10.2662 24.533 10.9203 23.7977 11.6285 23.1121C12.3547 22.4129 13.1666 21.8806 13.947 21.2582C14.1229 21.1183 14.2357 21.0958 14.4071 21.2717C14.8627 21.7453 15.3409 22.1603 15.8055 22.6249C16.4956 23.3196 17.1903 24.0143 17.8895 24.6999C19.3239 26.1163 20.7629 27.5237 22.1973 28.9401C23.6949 27.7492 24.8226 26.7208 25.9729 25.593C26.2029 25.363 26.5322 25.2186 26.6585 24.9209C26.7307 24.754 26.7442 24.5691 26.7532 24.3841C26.8074 23.5993 26.672 22.8685 26.7126 22.0881V22.0566C26.7126 22.0295 26.7171 22.0069 26.7171 21.9799" stroke="#282D35" stroke-miterlimit="10"/>
</svg>
