<?xml version="1.0" encoding="UTF-8"?>
<svg version="1.1" xmlns="http://www.w3.org/2000/svg" width="1920" height="1920" viewBox="0 0 1920 1920" preserveAspectRatio="xMidYMid meet">
<path d="M0 0 C547.14 0 1094.28 0 1658 0 C1658 156.09 1658 312.18 1658 473 C1110.86 473 563.72 473 0 473 C0 316.91 0 160.82 0 0 Z " fill="#003478" transform="translate(131,1023)"/>
<path d="M0 0 C547.14 0 1094.28 0 1658 0 C1658 156.09 1658 312.18 1658 473 C1110.86 473 563.72 473 0 473 C0 316.91 0 160.82 0 0 Z " fill="#CB0032" transform="translate(131,424)"/>
<path d="M0 0 C33.6603723 26.64393878 49.96196715 67.39021175 55.05908203 109.10107422 C58.87721018 143.73969652 59.35651746 180.85332446 49.08251953 214.54248047 C48.80923828 215.45255859 48.53595703 216.36263672 48.25439453 217.30029297 C44.28159923 230.32971485 39.75981325 242.66012707 33.08251953 254.54248047 C32.74140137 255.16912598 32.4002832 255.79577148 32.04882812 256.44140625 C26.52649111 266.54211303 19.84996721 275.07394688 12.08251953 283.54248047 C11.195 284.55375 11.195 284.55375 10.28955078 285.58544922 C-5.80821917 303.00745731 -29.02466651 312.61871214 -51.91748047 316.54248047 C-52.98869141 316.72939453 -54.05990234 316.91630859 -55.16357422 317.10888672 C-85.61120361 320.62573049 -116.88185161 314.02488203 -141.17919922 294.82373047 C-175.11438415 266.55247797 -192.62164389 225.25652024 -197.20814514 181.78768921 C-197.8228807 174.73371661 -198.07769471 167.74266856 -198.08544922 160.66357422 C-198.08877762 159.57142105 -198.09210602 158.47926788 -198.09553528 157.35401917 C-198.10056221 155.05738745 -198.10294493 152.76074854 -198.1027832 150.46411133 C-198.10495971 147.01289342 -198.12313418 143.56200103 -198.14208984 140.11083984 C-198.18426538 123.75393402 -197.5340399 107.60362489 -194.16748047 91.54248047 C-193.99829102 90.72473145 -193.82910156 89.90698242 -193.65478516 89.06445312 C-187.97955837 62.79006836 -177.02344688 38.32743808 -159.91748047 17.54248047 C-158.8559375 16.23150391 -158.8559375 16.23150391 -157.77294922 14.89404297 C-140.25343036 -5.71333172 -115.2910671 -17.50290406 -88.91748047 -21.45751953 C-87.81533203 -21.64056641 -86.71318359 -21.82361328 -85.57763672 -22.01220703 C-55.56790835 -25.66333727 -24.19656428 -18.39234642 0 0 Z " fill="#FDFDFE" transform="translate(730.91748046875,1106.45751953125)"/>
<path d="M0 0 C154.50558199 0 154.50558199 0 197.5625 41.1875 C203.50639708 47.25858461 208.34655474 53.90834761 213 61 C213.62648438 61.94230469 214.25296875 62.88460937 214.8984375 63.85546875 C225.92697192 81.54603641 231.19965939 101.97491026 234.75 122.3125 C234.86577393 122.96814941 234.98154785 123.62379883 235.10083008 124.29931641 C241.91705501 166.79316585 238.22027774 215.27679338 219 254 C218.690625 254.64195312 218.38125 255.28390625 218.0625 255.9453125 C211.99890525 268.45147668 203.47512262 278.92496273 194 289 C193.19369141 289.90298828 193.19369141 289.90298828 192.37109375 290.82421875 C183.94562567 299.88318067 173.14981472 306.1565379 162.3125 311.875 C161.45833496 312.32713867 160.60416992 312.77927734 159.72412109 313.24511719 C150.10811139 318.18670332 140.37618575 321.40567694 129.8125 323.625 C128.44254883 323.93050781 128.44254883 323.93050781 127.04492188 324.2421875 C85.63183425 333.13474314 41.05167089 328 0 328 C0 219.76 0 111.52 0 0 Z " fill="#010000" transform="translate(1451,490)"/>
<path d="M0 0 C136.40647482 0 136.40647482 0 160 7 C161.25941406 7.35835937 162.51882813 7.71671875 163.81640625 8.0859375 C184.28184635 14.3410156 203.04131355 27.25670427 213.375 46.375 C220.84419754 60.83878219 223.3863076 75.85218008 223.3125 92 C223.30512817 93.90942383 223.30512817 93.90942383 223.29760742 95.85742188 C223.11019284 111.05818609 221.52627277 125.10938118 215 139 C214.50757813 140.07636719 214.01515625 141.15273437 213.5078125 142.26171875 C209.23776789 150.89374673 203.7689543 157.29713033 197 164 C196.23042969 164.79148437 195.46085937 165.58296875 194.66796875 166.3984375 C185.7154769 175.09165787 168.11172055 188 155 188 C160.84514094 198.84726181 166.71094411 209.66930588 173.00854492 220.26171875 C176.78960744 226.62235704 180.49416146 233.02556554 184.1875 239.4375 C184.82534424 240.54448242 185.46318848 241.65146484 186.12036133 242.79199219 C187.428586 245.06287274 188.73660837 247.33386985 190.04443359 249.60498047 C193.81552773 256.1519012 197.59271076 262.69531065 201.36938477 269.23901367 C204.52319079 274.70421293 207.67434329 280.17091028 210.8203125 285.640625 C217.51761651 297.27765088 224.25306717 308.88760208 231.14111328 320.41308594 C231.65013184 321.26805664 232.15915039 322.12302734 232.68359375 323.00390625 C233.13275146 323.75486572 233.58190918 324.5058252 234.04467773 325.27954102 C235 327 235 327 235 328 C227.67246107 328.23219406 220.34572029 328.40961774 213.01524162 328.51812172 C209.61072335 328.57021569 206.20872911 328.64078503 202.80566406 328.75439453 C198.88898498 328.88432501 194.97330981 328.9324413 191.0546875 328.9765625 C189.83884979 329.02817535 188.62301208 329.07978821 187.37033081 329.13296509 C183.96594961 329.13521923 181.24379228 329.04095575 178 328 C175.13178626 324.99786304 173.59974102 321.79587641 172 318 C171.3184081 316.76743047 170.62325891 315.54202154 169.90234375 314.33203125 C169.24599505 313.15963728 168.59109109 311.98643353 167.9375 310.8125 C167.16437119 309.43081681 166.39091292 308.04931794 165.6171875 306.66796875 C164.99408691 305.55494385 164.99408691 305.55494385 164.35839844 304.41943359 C162.3277188 300.80260484 160.28248906 297.19405012 158.23852539 293.5847168 C153.38812635 285.01932895 148.56513915 276.44027473 143.79785156 267.82836914 C140.50399449 261.88667684 137.16226787 255.97281813 133.8125 250.0625 C128.24057613 240.23023201 122.74210969 230.35840947 117.26855469 220.47119141 C113.33252466 213.36913407 109.33841188 206.30799982 105.22265625 199.30859375 C104 197 104 197 104 195 C86.18 195 68.36 195 50 195 C50 238.89 50 282.78 50 328 C33.5 328 17 328 0 328 C0 219.76 0 111.52 0 0 Z " fill="#FEFEFE" transform="translate(856,1090)"/>
<path d="M0 0 C136.5 0 136.5 0 160 7 C160.64259766 7.18820312 161.28519531 7.37640625 161.94726562 7.5703125 C184.69434494 14.32018767 202.32116669 27.34454 214 48 C226.58352639 71.98834272 226.59923274 104.09616367 218.8984375 129.65625 C210.19051868 153.70134196 193.23384824 170.97303153 170.6875 182.4375 C170.04224365 182.76758057 169.3969873 183.09766113 168.73217773 183.43774414 C164.24087962 185.63483086 159.88229619 186.92166821 155 188 C160.84310868 198.8434904 166.70677677 209.66186333 173.00195312 220.25073242 C176.8471219 226.71945926 180.61683924 233.23037521 184.375 239.75 C185.01985352 240.86842285 185.66470703 241.9868457 186.32910156 243.13916016 C190.25706515 249.95823937 194.16585633 256.78798853 198.0625 263.625 C202.2692918 271.00470507 206.52649352 278.35353404 210.8125 285.6875 C212.57958488 288.71458891 214.3464685 291.74179521 216.11328125 294.76904297 C217.42998738 297.02386813 218.74766925 299.27810217 220.06640625 301.53173828 C221.81563765 304.52209472 223.55950139 307.51552944 225.30014038 310.51089478 C226.29340725 312.21720107 227.29179663 313.92052218 228.2902832 315.6237793 C229.19266724 317.17899292 229.19266724 317.17899292 230.11328125 318.765625 C230.64735596 319.68118164 231.18143066 320.59673828 231.73168945 321.54003906 C232.87251468 323.75273493 233.45231165 325.59663077 234 328 C226.13530474 328.25375182 218.27166517 328.42874732 210.40380859 328.54931641 C207.72672989 328.59394791 205.05499313 328.66773694 202.37841797 328.75439453 C198.53023716 328.87585586 194.68568643 328.93243741 190.8359375 328.9765625 C189.64197357 329.02817535 188.44800964 329.07978821 187.21786499 329.13296509 C183.865098 329.13522471 181.19234701 329.03198227 178 328 C175.1322049 325.01783072 173.60912549 321.77789546 172 318 C171.42443359 316.9989624 170.84886719 315.9979248 170.25585938 314.96655273 C169.55686523 313.71273804 169.55686523 313.71273804 168.84375 312.43359375 C168.30363281 311.46679688 167.76351562 310.5 167.20703125 309.50390625 C166.36205078 307.98603516 166.36205078 307.98603516 165.5 306.4375 C164.26045803 304.21742482 163.0208735 301.99737341 161.78125 299.77734375 C161.15347656 298.65183105 160.52570313 297.52631836 159.87890625 296.36669922 C156.92534758 291.0743949 153.96241809 285.78734853 151 280.5 C149.83328371 278.41669445 148.66661716 276.33336106 147.5 274.25 C146.9225 273.21875 146.345 272.1875 145.75 271.125 C140.5 261.75 140.5 261.75 138.74951172 258.62402344 C137.58459164 256.54387868 136.41955286 254.46380038 135.25439453 252.38378906 C132.31002074 247.12721343 129.36781638 241.86944406 126.4296875 236.609375 C125.24488345 234.48953203 124.05998839 232.36973993 122.875 230.25 C122.30249512 229.22511475 121.72999023 228.20022949 121.14013672 227.14428711 C118.27379717 222.02291458 115.38516007 216.91611527 112.453125 211.83203125 C111.89254395 210.85911133 111.33196289 209.88619141 110.75439453 208.88378906 C109.69162321 207.04360545 108.62506517 205.20560207 107.55419922 203.37011719 C107.0851416 202.55833008 106.61608398 201.74654297 106.1328125 200.91015625 C105.71918457 200.19996338 105.30555664 199.48977051 104.87939453 198.75805664 C104 197 104 197 104 195 C86.18 195 68.36 195 50 195 C50 238.89 50 282.78 50 328 C33.5 328 17 328 0 328 C0 219.76 0 111.52 0 0 Z " fill="#000000" transform="translate(556,490)"/>
<path d="M0 0 C17.82 0 35.64 0 54 0 C72.10843893 36.08072419 72.10843893 36.08072419 78.8762207 50.39672852 C83.13355003 59.36415717 87.59636858 68.22588652 92.05282593 77.09539795 C96.26549967 85.48343581 100.42383144 93.88931184 104.4375 102.375 C109.34046035 112.73910388 114.47275017 122.98241332 119.61871338 133.22717285 C124.55759211 143.0637346 129.41262048 152.93106126 134.1159668 162.88305664 C136.76314274 168.46842256 139.50689516 173.99364858 142.31640625 179.49902344 C149.16546404 192.95125247 155.23341111 206.68730834 161.20066833 220.54418945 C163.50267685 225.87894266 165.85434681 231.19048144 168.22265625 236.49609375 C168.92279447 238.06786028 169.62290865 239.63963751 170.32299805 241.21142578 C171.34256471 243.49982067 172.36373537 245.78742316 173.39028931 248.07269287 C174.33545496 250.17780404 175.27384933 252.28581477 176.2109375 254.39453125 C176.49457657 255.02113144 176.77821564 255.64773163 177.07044983 256.2933197 C178.29521671 259.06422362 179 260.92959072 179 264 C179.66 264 180.32 264 181 264 C180.5657979 258.95804335 180.12773404 253.9164328 179.6875 248.875 C179.62097229 248.11169373 179.55444458 247.34838745 179.48590088 246.56195068 C178.76301995 238.29128523 178.02151234 230.02394705 177.16796875 221.765625 C177.03495361 220.47543457 176.90193848 219.18524414 176.76489258 217.85595703 C176.51566041 215.47100651 176.26202396 213.08650946 176.00268555 210.70263672 C174.27841582 194.23948521 173.84862067 177.7486574 173.88647461 161.20605469 C173.88675776 159.42972821 173.88659626 157.65340161 173.8860321 155.8770752 C173.88574912 151.12633432 173.89156401 146.3756195 173.89860606 141.62488461 C173.90492378 136.63348974 173.90544998 131.64209405 173.90663147 126.6506958 C173.90972025 117.2307089 173.91790005 107.81073381 173.92798096 98.39075208 C173.93921895 87.65288839 173.94467178 76.91502409 173.94967639 66.17715597 C173.96008514 44.11809595 173.97839954 22.0590521 174 0 C189.84 0 205.68 0 222 0 C222 108.24 222 216.48 222 328 C204.18 328 186.36 328 168 328 C159.16287698 310.40682849 150.41866166 292.79706363 142 275 C140.69231517 272.239115 139.38379623 269.47863433 138.07348633 266.71899414 C137.27989075 265.04714255 136.48783759 263.37455707 135.69799805 261.70092773 C132.32228823 254.58247073 128.79118927 247.54304545 125.25650024 240.50271606 C121.13030096 232.28409033 117.01094503 224.06202997 112.89233398 215.83959961 C111.76187568 213.5837015 110.63069855 211.32816346 109.4987793 209.07299805 C103.11628593 196.35530278 96.81642895 183.60761109 90.70928955 170.75520325 C87.88607091 164.8220543 84.97841071 158.94885345 81.97021484 153.10717773 C73.28012007 136.19900513 65.75076582 118.80280752 58.20152283 101.36320496 C55.89594085 96.04244038 53.55963554 90.73673211 51.1875 85.4453125 C50.89956573 84.80245804 50.61163147 84.15960358 50.31497192 83.49726868 C48.99817092 80.55985011 47.67700144 77.62447338 46.35107422 74.69116211 C45.67842529 73.19081421 45.67842529 73.19081421 44.9921875 71.66015625 C44.60401855 70.80043213 44.21584961 69.94070801 43.81591797 69.05493164 C43 67 43 67 43 65 C42.34 65 41.68 65 41 65 C41.10957031 65.90492188 41.21914062 66.80984375 41.33203125 67.7421875 C42.47996321 77.50332015 43.43107734 87.28202049 44.30966187 97.07061768 C44.49024741 99.0790347 44.67434486 101.08713505 44.85864258 103.09521484 C45.1890914 106.77106488 45.48483814 110.44906528 45.77363491 114.1284008 C45.92842296 116.09199531 46.08650332 118.05533232 46.24741459 120.01843452 C48.05433262 142.52383666 48.27080034 164.92310941 48.20278788 187.49044871 C48.19004959 192.45241252 48.18909225 197.4143804 48.18673706 202.37635803 C48.18058864 211.71808094 48.16427053 221.05975549 48.14403808 230.40145737 C48.1214688 241.05976591 48.1106335 251.7180771 48.10064721 262.37640369 C48.07989612 284.25096855 48.04330601 306.12546736 48 328 C32.16 328 16.32 328 0 328 C0 219.76 0 111.52 0 0 Z " fill="#000000" transform="translate(1149,490)"/>
<path d="M0 0 C16.83 0 33.66 0 51 0 C51.33 51.48 51.66 102.96 52 156 C62.02209979 143.86692096 62.02209979 143.86692096 71.8984375 131.62890625 C76.32725727 126.08876553 80.81807392 120.59842178 85.29443359 115.09667969 C88.57151521 111.06811156 91.84567444 107.03716738 95.11938477 103.00585938 C97.84960243 99.64432765 100.58240038 96.2849562 103.3203125 92.9296875 C108.48017636 86.60113653 113.60650853 80.2539311 118.625 73.8125 C122.65982038 68.63627425 126.83021471 63.59741809 131.09082031 58.60595703 C134.40457959 54.72016568 137.61960376 50.77016858 140.79296875 46.76953125 C143.56873509 43.28631296 146.37710015 39.83029437 149.1875 36.375 C150.01628662 35.35490845 150.01628662 35.35490845 150.86181641 34.31420898 C153.70489537 30.81619917 156.55326411 27.32267623 159.41015625 23.8359375 C159.97001221 23.15096191 160.52986816 22.46598633 161.10668945 21.76025391 C162.15140818 20.4822545 163.19791951 19.20571679 164.24682617 17.93115234 C164.73771729 17.32996582 165.2286084 16.7287793 165.734375 16.109375 C166.27199463 15.48901367 166.80961426 14.86865234 167.36352539 14.22949219 C169.15308291 11.96513663 169.15308291 11.96513663 170.35327148 8.87207031 C172.34513554 4.97065301 174.10733854 2.06507913 178 0 C186.96409266 -1.95557102 196.39415444 -1.18609701 205.50457764 -0.82397461 C208.94292647 -0.70037883 212.38232772 -0.64623852 215.82226562 -0.5859375 C222.55092904 -0.45404907 229.27488275 -0.2536026 236 0 C229.70627167 8.45020417 229.70627167 8.45020417 226.80859375 11.9375 C226.26291748 12.59669434 225.71724121 13.25588867 225.1550293 13.93505859 C224.58824463 14.61648926 224.02145996 15.29791992 223.4375 16 C222.20267363 17.491814 220.96830977 18.98401094 219.734375 20.4765625 C219.11369141 21.22711914 218.49300781 21.97767578 217.85351562 22.75097656 C214.94692097 26.27778768 212.0659512 29.82520856 209.1875 33.375 C205.63329916 37.75687697 202.07598988 42.13585934 198.5 46.5 C193.21049332 52.9574452 187.95097339 59.43918576 182.68945312 65.91943359 C179.42222558 69.94303375 176.15335239 73.96529698 172.88476562 77.98779297 C170.12573597 81.38332977 167.36714835 84.779224 164.609375 88.17578125 C163.48959384 89.55469603 162.36980228 90.93360237 161.25 92.3125 C160.7048877 92.98394043 160.15977539 93.65538086 159.59814453 94.34716797 C156.53612124 98.11674301 153.46079064 101.87483095 150.375 105.625 C149.6840625 106.47578125 148.993125 107.3265625 148.28125 108.203125 C147.0409897 109.72371811 145.79714546 111.24153214 144.53515625 112.74414062 C142.96808479 114.61016712 141.42086559 116.49139051 139.875 118.375 C139.12742432 119.25019287 139.12742432 119.25019287 138.36474609 120.14306641 C135.65712831 123.34863879 135.65712831 123.34863879 135.19287109 127.34863281 C136.11107928 130.36488836 137.37285236 132.83843134 138.921875 135.5859375 C139.83187256 137.21160645 139.83187256 137.21160645 140.76025391 138.87011719 C141.42334832 140.03849903 142.08660098 141.20679108 142.75 142.375 C143.43336353 143.58984118 144.11613594 144.80501505 144.79833984 146.02050781 C146.53047563 149.1028455 148.2705591 152.18060986 150.01330566 155.25695801 C151.48932928 157.86442322 152.9593026 160.47528946 154.4296875 163.0859375 C157.08634212 167.7983703 159.75209947 172.50558551 162.42041016 177.21142578 C163.99553602 179.99211939 165.56680048 182.77495715 167.13671875 185.55859375 C172.69960637 195.42011538 178.2898937 205.26526065 183.91595459 215.09088135 C190.55785713 226.69089646 197.12495123 238.330702 203.64453125 250 C211.72552376 264.46145906 219.90996402 278.86436222 228.125 293.25 C228.63181305 294.1379274 228.63181305 294.1379274 229.14886475 295.04379272 C232.56118661 301.02043598 235.98501847 306.9897236 239.4609375 312.9296875 C239.97897949 313.81624023 240.49702148 314.70279297 241.03076172 315.61621094 C241.9841627 317.2441851 242.94130304 318.86997729 243.90283203 320.49316406 C247 325.78018784 247 325.78018784 247 328 C228.52 328 210.04 328 191 328 C188.36 323.38 185.72 318.76 183 314 C181.824375 312.02 180.64875 310.04 179.4375 308 C177.05016562 303.92654381 174.8817384 299.80593817 172.8125 295.5625 C169.78487186 289.39105934 166.44245906 283.44895487 163 277.5 C159.04675704 270.66661489 155.35516905 263.81946568 151.90625 256.71875 C149.47898366 251.86421732 146.71662644 247.19639286 144 242.5 C140.05351227 235.67264859 136.33918169 228.83415521 132.8828125 221.74609375 C129.07262096 214.04730294 124.80071971 206.57642648 120.66748047 199.04833984 C117.17623544 192.66595544 113.72803631 186.26007415 110.27685547 179.85595703 C109.7613916 178.90188965 109.24592773 177.94782227 108.71484375 176.96484375 C108.03603149 175.70595337 108.03603149 175.70595337 107.34350586 174.42163086 C106.38462411 172.69327396 105.37399636 170.99321333 104.33032227 169.31469727 C103 167 103 167 103 165 C99.2550384 168.65644433 95.77180196 172.45699535 92.375 176.4375 C91.85212402 177.04875732 91.32924805 177.66001465 90.79052734 178.28979492 C86.83584466 182.94534519 83.0371746 187.70633958 79.29101562 192.53027344 C74.49912249 198.68590791 69.52904291 204.69080215 64.5546875 210.69921875 C64.03001389 211.36123795 63.50534027 212.02325714 62.96476746 212.70533752 C61 215 61 215 58.72270203 217.00405884 C51.56536178 223.94093071 50.99848029 230.0359068 50.8347578 239.64849281 C50.82765203 242.89536485 50.86425509 246.14008835 50.90234375 249.38671875 C50.89668454 251.6578754 50.88706557 253.92902532 50.87367249 256.20014954 C50.84914963 262.14683625 50.87805939 268.09208249 50.91845703 274.03863525 C50.95577862 281.1899064 50.92610499 288.34118156 50.90778351 295.49248505 C50.88745949 306.3291844 50.95172997 317.16241248 51 328 C34.17 328 17.34 328 0 328 C0 219.76 0 111.52 0 0 Z " fill="#FDFDFE" transform="translate(255,1090)"/>
<path d="M0 0 C68.31 0 136.62 0 207 0 C207 14.19 207 28.38 207 43 C155.52 43 104.04 43 51 43 C51 73.69 51 104.38 51 136 C94.56 136 138.12 136 183 136 C183 149.86 183 163.72 183 178 C139.44 178 95.88 178 51 178 C51 213.64 51 249.28 51 286 C104.13 286 157.26 286 212 286 C212 299.86 212 313.72 212 328 C142.04 328 72.08 328 0 328 C0 219.76 0 111.52 0 0 Z " fill="#020000" transform="translate(864,490)"/>
<path d="M0 0 C7.11976788 -0.12726497 13.68533139 -0.03035018 20.49609375 2.1171875 C21.36621094 2.37371094 22.23632812 2.63023438 23.1328125 2.89453125 C30.17540677 5.18312883 35.69490579 8.55772539 41.49609375 13.1171875 C42.18445313 13.64054687 42.8728125 14.16390625 43.58203125 14.703125 C64.85964037 31.94387547 73.38251376 61.19134963 77.49609375 87.1171875 C77.6146875 87.86000977 77.73328125 88.60283203 77.85546875 89.36816406 C81.51197723 113.82106455 80.90844453 140.29203213 76.90185547 164.62451172 C76.52110451 166.96354138 76.19093746 169.30382343 75.875 171.65234375 C72.82489038 192.96903163 64.18012004 215.1266521 49.49609375 231.1171875 C48.79871094 231.89449219 48.10132813 232.67179687 47.3828125 233.47265625 C36.55993941 244.94913091 23.06542746 251.66441547 7.2109375 252.35546875 C-11.10968117 252.78015052 -24.6437561 248.13759436 -38.12890625 235.453125 C-38.91265625 234.68226563 -39.69640625 233.91140625 -40.50390625 233.1171875 C-41.55578125 232.08464844 -41.55578125 232.08464844 -42.62890625 231.03125 C-71.08614049 201.12892184 -73.65627656 153.15785703 -72.88671875 114.29296875 C-72.06690441 82.85587957 -66.14092032 48.98105988 -45.50390625 24.1171875 C-44.90320313 23.34375 -44.3025 22.5703125 -43.68359375 21.7734375 C-34.49345212 10.54531467 -21.78601848 3.27311426 -7.62890625 0.3046875 C-5.08874055 0.12132097 -2.54571911 0.08514111 0 0 Z " fill="#003478" transform="translate(656.50390625,1127.8828125)"/>
<path d="M0 0 C77.81471631 0 77.81471631 0 106.875 27.5 C127.22447586 49.09944366 134.97618884 80.66866755 135.23828125 109.625 C135.24802979 110.52180481 135.25777832 111.41860962 135.26782227 112.34259033 C135.52871595 142.54560018 134.05611377 170.58361968 120 198 C119.49984375 198.99515625 118.9996875 199.9903125 118.484375 201.015625 C107.85377903 220.72867189 89.69947844 234.26383887 68.6875 241.3125 C44.79984383 247.34022632 25.69099406 246 0 246 C0 164.82 0 83.64 0 0 Z " fill="#CA0032" transform="translate(1501,531)"/>
<path d="M0 0 C86.46 0 172.92 0 262 0 C262 14.19 262 28.38 262 43 C227.02 43 192.04 43 156 43 C156 137.05 156 231.1 156 328 C139.5 328 123 328 106 328 C106 233.62 106 139.24 106 42 C71.02 42 36.04 42 0 42 C0 28.14 0 14.28 0 0 Z " fill="#010000" transform="translate(229,490)"/>
<path d="M0 0 C9.8175 -0.061875 19.635 -0.12375 29.75 -0.1875 C32.80475586 -0.21481201 35.85951172 -0.24212402 39.00683594 -0.27026367 C89.39694998 -0.53531661 89.39694998 -0.53531661 108 15 C108.93005859 15.74830078 108.93005859 15.74830078 109.87890625 16.51171875 C117.72612239 23.51150335 122.47606559 34.30946479 123.18676758 44.74145508 C123.26813664 47.80954724 123.27288895 50.86847332 123.25 53.9375 C123.25773438 54.97068359 123.26546875 56.00386719 123.2734375 57.06835938 C123.23673653 71.55606671 119.20526852 85.32054729 109 96 C92.54627785 111.40753173 71.14458823 114.36530575 49.51171875 114.1953125 C48.24702759 114.19329834 46.98233643 114.19128418 45.67932129 114.18920898 C41.01534325 114.1788505 36.35141746 114.15092914 31.6875 114.125 C21.230625 114.08375 10.77375 114.0425 0 114 C0 76.38 0 38.76 0 0 Z " fill="#CA0032" transform="translate(606,530)"/>
<path d="M0 0 C9.075 -0.061875 18.15 -0.12375 27.5 -0.1875 C30.30951172 -0.21481201 33.11902344 -0.24212402 36.01367188 -0.27026367 C89.35171876 -0.57308899 89.35171876 -0.57308899 108 15 C108.93005859 15.74830078 108.93005859 15.74830078 109.87890625 16.51171875 C117.73632722 23.52060614 122.3567226 34.23118827 123.21899414 44.64477539 C123.97767809 63.19372673 122.47845882 79.59768178 110.5625 94.5625 C97.87265872 108.25795134 77.49677911 113.36072294 59.46020508 114.15609741 C49.76474434 114.37097689 40.07211709 114.27224665 30.375 114.1875 C15.339375 114.0946875 15.339375 114.0946875 0 114 C0 76.38 0 38.76 0 0 Z " fill="#013578" transform="translate(906,1130)"/>
<path d="M0 0 C10.17365697 7.4618047 16.51842549 17.03193861 19.421875 29.35546875 C19.71117938 32.2574886 19.75621249 35.12797636 19.734375 38.04296875 C19.72873535 38.83316406 19.7230957 39.62335938 19.71728516 40.4375 C19.48828179 51.57477276 16.76265924 60.17578111 10.421875 69.35546875 C9.844375 70.24234375 9.266875 71.12921875 8.671875 72.04296875 C2.04718552 78.85167738 -5.60436427 82.57823165 -14.578125 85.35546875 C-15.568125 85.68546875 -16.558125 86.01546875 -17.578125 86.35546875 C-32.64890973 87.346113 -44.43298029 84.99797758 -56.578125 75.35546875 C-62.05799795 69.80204046 -66.06328754 63.74114928 -68.578125 56.35546875 C-68.80242187 55.71867187 -69.02671875 55.081875 -69.2578125 54.42578125 C-72.58059877 42.72775288 -71.9505059 28.22738749 -66.578125 17.35546875 C-60.03985398 5.769517 -50.59327057 -2.4914387 -37.69238281 -6.18432617 C-24.82273024 -8.98563046 -11.05257397 -7.05020249 0 0 Z " fill="#FDFDFE" transform="translate(1285.578125,1337.64453125)"/>
</svg>
